HIERARCHY
ROOT reference
{
  OFFSET 0 0 0
  CHANNELS 6 Xposition Yposition Zposition Zrotation Xrotation Yrotation
  JOINT Hips
  {
    OFFSET -5.25163 88.9066 69.809
    CHANNELS 6 Xposition Yposition Zposition Zrotation Xrotation Yrotation
    JOINT Spine
    {
      OFFSET 0 7.88368 0
      CHANNELS 6 Xposition Yposition Zposition Zrotation Xrotation Yrotation
      JOINT Spine1
      {
        OFFSET 0 24.7763 0
        CHANNELS 6 Xposition Yposition Zposition Zrotation Xrotation Yrotation
        JOINT Neck
        {
          OFFSET 0 24.6746 2.24314
          CHANNELS 6 Xposition Yposition Zposition Zrotation Xrotation Yrotation
          JOINT Head
          {
            OFFSET 0 13.4599 -1.92285
            CHANNELS 6 Xposition Yposition Zposition Zrotation Xrotation Yrotation
            End Site
            {
              OFFSET 0 24.0356 0
            }
          }
        }
        JOINT LeftShoulder
        {
          OFFSET 3.81022 22.3233 -0.325006
          CHANNELS 6 Xposition Yposition Zposition Zrotation Xrotation Yrotation
          JOINT LeftArm
          {
            OFFSET 12.5606 0 0
            CHANNELS 6 Xposition Yposition Zposition Zrotation Xrotation Yrotation
            JOINT LeftForeArm
            {
              OFFSET 28.8068 0 0
              CHANNELS 6 Xposition Yposition Zposition Zrotation Xrotation Yrotation
              JOINT LeftHand
              {
                OFFSET 23.8139 0 0
                CHANNELS 6 Xposition Yposition Zposition Zrotation Xrotation Yrotation
                End Site
                {
                  OFFSET 14.4214 0 0
                }
              }
            }
          }
        }
        JOINT RightShoulder
        {
          OFFSET -3.82306 22.3233 -0.325006
          CHANNELS 6 Xposition Yposition Zposition Zrotation Xrotation Yrotation
          JOINT RightArm
          {
            OFFSET -12.5606 0 0
            CHANNELS 6 Xposition Yposition Zposition Zrotation Xrotation Yrotation
            JOINT RightForeArm
            {
              OFFSET -28.8068 0 0
              CHANNELS 6 Xposition Yposition Zposition Zrotation Xrotation Yrotation
              JOINT RightHand
              {
                OFFSET -23.8139 0 0
                CHANNELS 6 Xposition Yposition Zposition Zrotation Xrotation Yrotation
                End Site
                {
                  OFFSET -14.4214 0 0
                }
              }
            }
          }
        }
      }
    }
    JOINT LeftUpLeg
    {
      OFFSET 9.61425 0 0
      CHANNELS 6 Xposition Yposition Zposition Zrotation Xrotation Yrotation
      JOINT LeftLeg
      {
        OFFSET 0 -41.4642 0
        CHANNELS 6 Xposition Yposition Zposition Zrotation Xrotation Yrotation
        JOINT LeftFoot
        {
          OFFSET 0 -34.276 0
          CHANNELS 6 Xposition Yposition Zposition Zrotation Xrotation Yrotation
          JOINT LeftToeBase
          {
            OFFSET 0 -6.24926 14.4214
            CHANNELS 6 Xposition Yposition Zposition Zrotation Xrotation Yrotation
            End Site
            {
              OFFSET 0 0 3.8457
            }
          }
        }
      }
    }
    JOINT RightUpLeg
    {
      OFFSET -9.61425 0 0
      CHANNELS 6 Xposition Yposition Zposition Zrotation Xrotation Yrotation
      JOINT RightLeg
      {
        OFFSET 0 -41.4642 0
        CHANNELS 6 Xposition Yposition Zposition Zrotation Xrotation Yrotation
        JOINT RightFoot
        {
          OFFSET 0 -34.276 0
          CHANNELS 6 Xposition Yposition Zposition Zrotation Xrotation Yrotation
          JOINT RightToeBase
          {
            OFFSET 0 -6.24926 14.4214
            CHANNELS 6 Xposition Yposition Zposition Zrotation Xrotation Yrotation
            End Site
            {
              OFFSET 0 0 3.8457
            }
          }
        }
      }
    }
  }
}
MOTION
Frames:	6
Frame Time:	0.004
0 0 0 0 0 -0 -13.6499 78.2423 -86.9917 3.12977 1.82528 84.8514 0 7.88368 0 2.488 11.0103 -1.97635 1.42109e-014 24.7763 0 -6.91497 6.93233 -1.31711 1.42109e-014 24.6746 2.24314 -1.86799 15.7476 -29.3951 7.10543e-015 13.4599 -1.92285 24.2479 -8.15155 -25.7748 3.81022 22.3233 -0.325006 5.45608 9.64589 17.308 12.5606 1.42109e-014 -7.10543e-015 -48.5246 2.33579 0.207027 28.8068 0 0 30.7535 2.15916 -38.3016 23.8139 -1.42109e-014 1.42109e-014 4.26471 12.8741 -4.10509 -3.82306 22.3233 -0.325006 -6.494 5.84972 1.1548 -12.5606 0 -7.10543e-015 29.8744 -10.3738 -9.55001 -28.8068 -1.42109e-014 0 -12.9307 0.466615 25.3617 -23.8139 0 -7.10543e-015 -13.2723 3.04178 2.98587 9.61425 1.42109e-014 0 22.6268 1.38227 -2.07554 0 -41.4642 -3.55271e-015 -3.56386 18.4553 5.31466 0 -34.276 -3.55271e-015 -14.7481 2.69545 22.8181 0 -6.24926 14.4214 -3.18055e-015 3.97569e-016 -3.18055e-015 -9.61425 0 0 -17.3405 -13.1712 -0.497644 1.42109e-014 -41.4642 8.88178e-016 -1.33006 33.3261 0.10905 -7.10543e-015 -34.276 0 7.92323 -19.2042 -8.22157 0 -6.24926 14.4214 -0 -3.97569e-016 -0 
0 0 0 0 0 -0 -13.656 78.3061 -86.7118 3.0627 1.9129 84.8045 1.42109e-014 7.88368 0 2.50634 10.9598 -1.97291 1.42109e-014 24.7763 0 -6.89871 6.88382 -1.31696 0 24.6746 2.24314 -1.97433 15.8046 -29.3739 -7.10543e-015 13.4599 -1.92285 24.2553 -8.21361 -25.7382 3.81022 22.3233 -0.325006 5.37873 9.63089 17.2873 12.5606 -1.42109e-014 0 -48.4607 2.10086 0.309125 28.8068 0 0 30.5987 2.05246 -38.5308 23.8139 0 -2.84217e-014 3.83724 12.8005 -4.00554 -3.82306 22.3233 -0.325006 -6.50851 5.89286 1.08421 -12.5606 2.84217e-014 -7.10543e-015 29.897 -10.4335 -9.56138 -28.8068 0 0 -12.8867 0.176607 25.7184 -23.8139 0 0 -13.2245 2.80445 2.82419 9.61425 1.42109e-014 3.55271e-015 22.6887 1.43963 -2.0908 1.42109e-014 -41.4642 -3.55271e-015 -3.58542 18.1089 5.5297 -1.42109e-014 -34.276 1.77636e-015 -14.6585 3.37245 22.8364 0 -6.24926 14.4214 -7.95139e-016 2.78299e-015 -3.18055e-015 -9.61425 0 0 -17.1858 -13.3045 -0.393714 7.10543e-015 -41.4642 -5.32907e-015 -1.31325 33.4611 0.119779 -7.10543e-015 -34.276 0 7.67355 -19.322 -8.34224 0 -6.24926 14.4214 -4.41391e-032 -7.95139e-016 -3.18055e-015 
0 0 0 0 0 -0 -13.6382 78.3583 -86.4217 3.06705 2.01428 84.8284 0 7.88368 -3.55271e-015 2.54436 10.9626 -2.01153 0 24.7763 0 -6.97554 6.82843 -1.3506 0 24.6746 2.24314 -1.93236 15.8896 -29.3521 7.10543e-015 13.4599 -1.92285 24.1943 -8.34142 -25.7024 3.81022 22.3233 -0.325006 5.42798 9.69443 17.2745 12.5606 -1.42109e-014 0 -48.584 2.12021 0.439315 28.8068 0 7.10543e-015 30.7041 1.74436 -38.6738 23.8139 -2.84217e-014 2.84217e-014 3.49379 12.5969 -3.90622 -3.82306 22.3233 -0.325006 -6.43271 5.79203 1.13325 -12.5606 0 0 29.8797 -10.3514 -9.8135 -28.8068 1.42109e-014 0 -12.8776 -0.160648 26.1326 -23.8139 0 0 -13.0455 2.52465 2.77606 9.61425 0 0 22.7393 1.53663 -2.18834 0 -41.4642 3.55271e-015 -3.61401 17.7756 5.7232 0 -34.276 3.55271e-015 -14.7226 3.86471 23.0023 0 -6.24926 14.4214 3.97569e-015 0 -3.18055e-015 -9.61425 0 -3.55271e-015 -17.0629 -13.3011 -0.39263 7.10543e-015 -41.4642 1.77636e-015 -1.31643 33.5788 0.254927 -7.10543e-015 -34.276 0 7.36075 -19.5676 -8.52951 7.10543e-015 -6.24926 14.4214 6.62086e-032 -1.19271e-015 3.18055e-015 
0 0 0 0 0 -0 -13.629 78.4109 -86.1404 3.04739 2.08656 84.8146 0 7.88368 0 2.6113 10.9209 -2.03731 0 24.7763 0 -7.08249 6.82473 -1.36475 0 24.6746 2.24314 -1.86968 15.9031 -29.329 0 13.4599 -1.92285 24.1 -8.40528 -25.684 3.81022 22.3233 -0.325006 5.50448 9.71037 17.2957 12.5606 -1.42109e-014 0 -48.7192 2.16909 0.603896 28.8068 2.84217e-014 0 30.8281 1.36816 -38.8692 23.8139 0 0 2.92234 12.3566 -3.81398 -3.82306 22.3233 -0.325006 -6.32997 5.93256 1.00963 -12.5606 2.84217e-014 -7.10543e-015 29.9016 -10.4508 -9.67124 -28.8068 0 0 -12.8393 -0.442494 26.465 -23.8139 0 7.10543e-015 -12.9136 2.28585 2.69531 9.61425 0 0 22.8085 1.62352 -2.17875 0 -41.4642 0 -3.62396 17.4496 5.86587 0 -34.276 0 -14.4122 4.51761 22.9577 1.42109e-014 -6.24926 14.4214 3.18055e-015 0 6.36111e-015 -9.61425 0 0 -16.9022 -13.3125 -0.246651 7.10543e-015 -41.4642 0 -1.33473 33.5882 0.686568 0 -34.276 0 7.0971 -19.7573 -8.93612 -7.10543e-015 -6.24926 14.4214 -4.77083e-015 0 -3.18055e-015 
0 0 0 0 0 -0 -13.6275 78.4749 -85.8606 3.03037 2.15058 84.7665 0 7.88368 0 2.6527 10.9328 -2.03826 0 24.7763 7.10543e-015 -7.11894 6.75405 -1.36368 1.42109e-014 24.6746 2.24314 -1.8426 15.9574 -29.3032 7.10543e-015 13.4599 -1.92285 24.0056 -8.53721 -25.6495 3.81022 22.3233 -0.325006 5.51329 9.76268 17.3092 12.5606 0 0 -48.7917 2.0508 0.679546 28.8068 0 1.42109e-014 30.7861 1.13073 -39.0518 23.8139 0 1.42109e-014 2.56187 12.1782 -3.7312 -3.82306 22.3233 -0.325006 -6.30095 5.98669 0.949463 -12.5606 0 -7.10543e-015 29.9487 -10.4588 -9.69696 -28.8068 1.42109e-014 0 -12.8565 -0.769088 26.8799 -23.8139 1.42109e-014 0 -12.5316 2.03859 2.54519 9.61425 0 0 22.8703 1.73447 -2.22107 0 -41.4642 0 -3.63365 17.0711 6.02821 1.42109e-014 -34.276 3.55271e-015 -14.2792 5.20195 23.0343 0 -6.24926 14.4214 4.77083e-015 0 -0 -9.61425 -2.84217e-014 -3.55271e-015 -16.7283 -13.3554 -0.164097 -7.10543e-015 -41.4642 1.77636e-015 -1.37923 33.6967 0.775507 0 -34.276 3.55271e-015 6.88354 -19.9076 -8.94174 0 -6.24926 14.4214 1.59028e-015 -1.59028e-015 -0 
0 0 0 0 0 -0 -13.6153 78.5304 -85.5841 3.00673 2.24719 84.7934 -1.42109e-014 7.88368 -3.55271e-015 2.68534 10.8876 -2.08751 0 24.7763 0 -7.1886 6.74384 -1.40742 1.42109e-014 24.6746 2.24314 -1.80169 15.9678 -29.2685 1.42109e-014 13.4599 -1.92285 23.9288 -8.61481 -25.6125 3.81022 22.3233 -0.325006 5.53874 9.77247 17.3723 12.5606 0 0 -48.8097 2.1254 0.770153 28.8068 -2.84217e-014 0 30.6632 0.776966 -39.2096 23.8139 0 1.42109e-014 2.10512 11.853 -3.48193 -3.82306 22.3233 -0.325006 -6.21679 5.99689 0.897437 -12.5606 0 -1.42109e-014 29.9755 -10.3889 -9.70442 -28.8068 1.42109e-014 0 -12.8732 -1.05293 27.2251 -23.8139 0 -7.10543e-015 -12.6132 1.80782 2.45873 9.61425 0 0 22.9065 1.89733 -2.3132 1.42109e-014 -41.4642 0 -3.66062 16.5262 6.26934 0 -34.276 0 -14.0947 5.87911 23.044 1.42109e-014 -6.24926 14.4214 4.77083e-015 0 3.18055e-015 -9.61425 1.42109e-014 -3.55271e-015 -16.6094 -13.3594 -0.218911 0 -41.4642 -1.77636e-015 -1.43395 33.7169 0.440266 7.10543e-015 -34.276 0 7.15277 -19.9574 -8.51074 0 -6.24926 14.4214 0 0 -0 
